# xmcd CD database file
#
# Track frame offsets:
#	150
#	14675
#	27452
#	60230
#	82607
#	104070
#	144467
#	164947
#	179950
#	197287
#	221137
#	236882
#	260870
#
# Disc length: 3939 seconds
#
# Revision: 2
# Processed by: cddbd v1.5.2PL0 Copyright (c) Steve Scherf et al.
# Submitted via: CDex 1.51
#
DISCID=c80f610d
DTITLE=Tranquil Moods - Il Volo
DYEAR=1997
DGENRE=New Age
TTITLE0=Cocteau Twins-Fifty Fifty Clown
TTITLE1=Gandalf and Galadriel-Breathing
TTITLE2=Megabyte-Last flight
TTITLE3=Windows-Valentines day
TTITLE4=Michael Gettel-Prayers on the wind
TTITLE5=Bindu-Cherry Blossoms
TTITLE6=Jonn Serrie-Outreach
TTITLE7=Coctwau Twins-Whales Tails
TTITLE8=Joost Vanove-Purple Whirl
TTITLE9=Prem Joshua-Kafi-the mountain stream
TTITLE10=Bernward Koch-The lure of solitude
TTITLE11=Gandalf and Galadriel-The eternal stream
TTITLE12=Prem Joshua-Ocean monsoon night
EXTD=YEAR: 1997
EXTT0=
EXTT1=
EXTT2=
EXTT3=
EXTT4=
EXTT5=
EXTT6=
EXTT7=
EXTT8=
EXTT9=
EXTT10=
EXTT11=
EXTT12=
PLAYORDER=
